ffmpeg started on 2016-12-08 at 03:35:17
Report written to "Output/x264/results/ffmpeg/sintelslower8000k.log"
Command line:
Tools/ffmpeg/ffmpeg -benchmark -y -i Input/y4m/sintel.y4m -c:v libx264 -preset slower -b:v 8000k -an Output/x264/encoded/sintelslower8000k.mkv
ffmpeg version N-82227-gdb23fde Copyright (c) 2000-2016 the FFmpeg developers
  built with gcc 5.4.0 (Ubuntu 5.4.0-6ubuntu1~16.04.2) 20160609
  configuration: --prefix=/home/jaroslav/ffmpeg_build --pkg-config-flags=--static --extra-cflags=-I/home/jaroslav/ffmpeg_build/include --extra-ldflags=-L/home/jaroslav/ffmpeg_build/lib --bindir=/home/jaroslav/bin --enable-gpl --enable-libass --enable-libfdk-aac --enable-libfreetype --enable-libmp3lame --enable-libopus --enable-libtheora --enable-libvorbis --enable-libvpx --enable-libx264 --enable-libx265 --enable-nvenc --enable-libmfx --enable-libxvid --enable-libgsm --enable-libopencore-amrnb --enable-version3 --enable-nonfree
  libavutil      55. 35.100 / 55. 35.100
  libavcodec     57. 66.101 / 57. 66.101
  libavformat    57. 57.100 / 57. 57.100
  libavdevice    57.  2.100 / 57.  2.100
  libavfilter     6. 66.100 /  6. 66.100
  libswscale      4.  3.100 /  4.  3.100
  libswresample   2.  4.100 /  2.  4.100
  libpostproc    54.  2.100 / 54.  2.100
Input #0, yuv4mpegpipe, from 'Input/y4m/sintel.y4m':
  Duration: 00:00:20.83, start: 0.000000, bitrate: 2057307 kb/s
    Stream #0:0: Video: rawvideo (I420 / 0x30323449), yuv420p(progressive), 4096x1744, SAR 1:1 DAR 256:109, 24 fps, 24 tbr, 24 tbn, 24 tbc
[libx264 @ 0x37091c0] using SAR=1/1
[libx264 @ 0x37091c0] DPB size (8 frames, 223232 mbs) > level limit (6 frames, 184320 mbs)
[libx264 @ 0x37091c0] using cpu capabilities: MMX2 SSE2Fast SSSE3 SSE4.2 AVX FMA3 AVX2 LZCNT BMI2
[libx264 @ 0x37091c0] profile High, level 5.2
[libx264 @ 0x37091c0] 264 - core 148 - H.264/MPEG-4 AVC codec - Copyleft 2003-2016 - http://www.videolan.org/x264.html - options: cabac=1 ref=8 deblock=1:0:0 analyse=0x3:0x133 me=umh subme=9 psy=1 psy_rd=1.00:0.00 mixed_ref=1 me_range=16 chroma_me=1 trellis=2 8x8dct=1 cqm=0 deadzone=21,11 fast_pskip=1 chroma_qp_offset=-2 threads=6 lookahead_threads=1 sliced_threads=0 nr=0 decimate=1 interlaced=0 bluray_compat=0 constrained_intra=0 bframes=3 b_pyramid=2 b_adapt=2 b_bias=0 direct=3 weightb=1 open_gop=0 weightp=2 keyint=250 keyint_min=24 scenecut=40 intra_refresh=0 rc_lookahead=60 rc=abr mbtree=1 bitrate=8000 ratetol=1.0 qcomp=0.60 qpmin=0 qpmax=69 qpstep=4 ip_ratio=1.40 aq=1:1.00
Output #0, matroska, to 'Output/x264/encoded/sintelslower8000k.mkv':
  Metadata:
    encoder         : Lavf57.57.100
    Stream #0:0: Video: h264 (libx264) (H264 / 0x34363248), yuv420p, 4096x1744 [SAR 1:1 DAR 256:109], q=-1--1, 8000 kb/s, 24 fps, 1k tbn, 24 tbc
    Metadata:
      encoder         : Lavc57.66.101 libx264
    Side data:
      cpb: bitrate max/min/avg: 0/0/8000000 buffer size: 0 vbv_delay: -1
Stream mapping:
  Stream #0:0 -> #0:0 (rawvideo (native) -> h264 (libx264))
Press [q] to stop, [?] for help
frame=   10 fps=0.0 q=0.0 size=       0kB time=00:00:00.00 bitrate=N/A speed=   0x    frame=   19 fps= 18 q=0.0 size=       0kB time=00:00:00.00 bitrate=N/A speed=   0x    frame=   28 fps= 18 q=0.0 size=       0kB time=00:00:00.00 bitrate=N/A speed=   0x    frame=   37 fps= 18 q=0.0 size=       0kB time=00:00:00.00 bitrate=N/A speed=   0x    frame=   46 fps= 18 q=0.0 size=       0kB time=00:00:00.00 bitrate=N/A speed=   0x    frame=   55 fps= 18 q=0.0 size=       0kB time=00:00:00.00 bitrate=N/A speed=   0x    frame=   64 fps= 18 q=0.0 size=       0kB time=00:00:00.00 bitrate=N/A speed=   0x    frame=   67 fps=6.4 q=0.0 size=       0kB time=00:00:00.00 bitrate=N/A speed=   0x    frame=   71 fps=6.4 q=26.0 size=       1kB time=-00:00:00.08 bitrate=N/A speed=N/A    frame=   73 fps=6.0 q=35.0 size=       1kB time=00:00:00.00 bitrate=5888.0kbits/s speed=8.25e-05x    frame=   74 fps=5.8 q=30.0 size=       1kB time=00:00:00.04 bitrate= 136.9kbits/s speed=0.00337x    frame=   75 fps=5.6 q=33.0 size=       1kB time=00:00:00.08 bitrate=  70.1kbits/s speed=0.00624x    frame=   76 fps=5.4 q=43.0 size=       1kB time=00:00:00.12 bitrate=  46.7kbits/s speed=0.00902x    frame=   77 fps=5.1 q=39.0 size=       1kB time=00:00:00.16 bitrate=  35.0kbits/s speed=0.0112x    frame=   78 fps=5.0 q=45.0 size=       1kB time=00:00:00.20 bitrate=  28.2kbits/s speed=0.0134x    frame=   81 fps=4.8 q=45.0 size=       1kB time=00:00:00.33 bitrate=  17.6kbits/s speed=0.02x    frame=   84 fps=4.7 q=44.0 size=       1kB time=00:00:00.45 bitrate=  12.8kbits/s speed=0.0254x    frame=   86 fps=4.5 q=44.0 size=       1kB time=00:00:00.54 bitrate=  10.8kbits/s speed=0.0284x    frame=   89 fps=4.5 q=44.0 size=       1kB time=00:00:00.66 bitrate=   8.8kbits/s speed=0.034x    frame=   90 fps=4.3 q=44.0 size=       1kB time=00:00:00.70 bitrate=   8.3kbits/s speed=0.034x    frame=   92 fps=4.2 q=44.0 size=       1kB time=00:00:00.79 bitrate=   7.4kbits/s speed=0.0366x    frame=   93 fps=4.2 q=44.0 size=       1kB time=00:00:00.83 bitrate=   7.1kbits/s speed=0.0375x    frame=   95 fps=4.1 q=44.0 size=       1kB time=00:00:00.91 bitrate=   6.4kbits/s speed=0.0395x    frame=   98 fps=4.1 q=43.0 size=       1kB time=00:00:01.04 bitrate=   5.6kbits/s speed=0.0439x    frame=   99 fps=4.0 q=43.0 size=       1kB time=00:00:01.08 bitrate=   5.4kbits/s speed=0.0439x    frame=  101 fps=4.0 q=43.0 size=       1kB time=00:00:01.16 bitrate=   5.0kbits/s speed=0.046x    frame=  102 fps=3.9 q=43.0 size=       1kB time=00:00:01.20 bitrate=   4.9kbits/s speed=0.0465x    frame=  104 fps=3.8 q=43.0 size=       1kB time=00:00:01.29 bitrate=   4.6kbits/s speed=0.0477x    frame=  106 fps=3.8 q=42.0 size=       1kB time=00:00:01.37 bitrate=   4.3kbits/s speed=0.0494x    frame=  108 fps=3.7 q=42.0 size=       1kB time=00:00:01.45 bitrate=   4.0kbits/s speed=0.0505x    frame=  110 fps=3.7 q=42.0 size=       1kB time=00:00:01.54 bitrate=   3.8kbits/s speed=0.052x    frame=  112 fps=3.7 q=42.0 size=       1kB time=00:00:01.62 bitrate=   3.6kbits/s speed=0.0533x    frame=  114 fps=3.7 q=42.0 size=       1kB time=00:00:01.70 bitrate=   3.4kbits/s speed=0.0551x    frame=  116 fps=3.6 q=42.0 size=       1kB time=00:00:01.79 bitrate=   3.3kbits/s speed=0.0563x    frame=  118 fps=3.6 q=41.0 size=       1kB time=00:00:01.87 bitrate=   3.1kbits/s speed=0.0574x    frame=  120 fps=3.6 q=41.0 size=       1kB time=00:00:01.95 bitrate=   3.0kbits/s speed=0.0586x    frame=  122 fps=3.6 q=41.0 size=       1kB time=00:00:02.04 bitrate=   2.9kbits/s speed=0.0595x    frame=  124 fps=3.5 q=41.0 size=       1kB time=00:00:02.12 bitrate=   2.8kbits/s speed=0.0605x    frame=  126 fps=3.4 q=41.0 size=       1kB time=00:00:02.20 bitrate=   2.7kbits/s speed=0.0604x    frame=  127 fps=3.4 q=41.0 size=       1kB time=00:00:02.25 bitrate=   2.6kbits/s speed=0.0605x    frame=  129 fps=3.4 q=41.0 size=       1kB time=00:00:02.33 bitrate=   2.5kbits/s speed=0.0615x    frame=  130 fps=3.4 q=41.0 size=       1kB time=00:00:02.37 bitrate=   2.5kbits/s speed=0.0613x    frame=  132 fps=3.3 q=41.0 size=       1kB time=00:00:02.45 bitrate=   2.4kbits/s speed=0.0621x    frame=  134 fps=3.3 q=41.0 size=       1kB time=00:00:02.54 bitrate=   2.3kbits/s speed=0.0633x    frame=  135 fps=3.3 q=41.0 size=       1kB time=00:00:02.58 bitrate=   2.3kbits/s speed=0.0632x    frame=  137 fps=3.2 q=41.0 size=       1kB time=00:00:02.66 bitrate=   2.2kbits/s speed=0.0627x    frame=  138 fps=3.2 q=41.0 size=       1kB time=00:00:02.70 bitrate=   2.2kbits/s speed=0.0629x    frame=  140 fps=3.2 q=41.0 size=       1kB time=00:00:02.79 bitrate=   2.1kbits/s speed=0.0638x    frame=  142 fps=3.2 q=41.0 size=       1kB time=00:00:02.87 bitrate=   2.0kbits/s speed=0.0646x    frame=  143 fps=3.1 q=41.0 size=       1kB time=00:00:02.91 bitrate=   2.0kbits/s speed=0.0639x    frame=  145 fps=3.1 q=40.0 size=       1kB time=00:00:03.00 bitrate=   2.0kbits/s speed=0.0645x    frame=  147 fps=3.1 q=40.0 size=       1kB time=00:00:03.08 bitrate=   1.9kbits/s speed=0.0653x    frame=  149 fps=3.1 q=40.0 size=       1kB time=00:00:03.16 bitrate=   1.9kbits/s speed=0.0657x    frame=  150 fps=3.0 q=40.0 size=       1kB time=00:00:03.20 bitrate=   1.8kbits/s speed=0.0649x    frame=  152 fps=3.0 q=40.0 size=       1kB time=00:00:03.29 bitrate=   1.8kbits/s speed=0.0657x    frame=  153 fps=3.0 q=40.0 size=       1kB time=00:00:03.33 bitrate=   1.8kbits/s speed=0.0657x    frame=  154 fps=3.0 q=40.0 size=       1kB time=00:00:03.37 bitrate=   1.7kbits/s speed=0.0659x    frame=  155 fps=3.0 q=40.0 size=       1kB time=00:00:03.41 bitrate=   1.7kbits/s speed=0.0655x    frame=  157 fps=3.0 q=40.0 size=       1kB time=00:00:03.50 bitrate=   1.7kbits/s speed=0.0663x    frame=  158 fps=3.0 q=40.0 size=       1kB time=00:00:03.54 bitrate=   1.7kbits/s speed=0.0662x    frame=  160 fps=2.9 q=40.0 size=       1kB time=00:00:03.62 bitrate=   1.6kbits/s speed=0.0666x    frame=  162 fps=2.9 q=40.0 size=       1kB time=00:00:03.70 bitrate=   1.6kbits/s speed=0.0666x    frame=  164 fps=2.9 q=40.0 size=       1kB time=00:00:03.79 bitrate=   1.6kbits/s speed=0.0673x    frame=  166 fps=2.9 q=40.0 size=       1kB time=00:00:03.87 bitrate=   1.5kbits/s speed=0.0678x    frame=  167 fps=2.9 q=40.0 size=       1kB time=00:00:03.91 bitrate=   1.5kbits/s speed=0.0673x    frame=  170 fps=2.9 q=39.0 size=       1kB time=00:00:04.04 bitrate=   1.5kbits/s speed=0.0689x    frame=  172 fps=2.9 q=39.0 size=       1kB time=00:00:04.12 bitrate=   1.4kbits/s speed=0.0696x    frame=  173 fps=2.8 q=39.0 size=       1kB time=00:00:04.16 bitrate=   1.4kbits/s speed=0.0685x    frame=  177 fps=2.9 q=39.0 size=       1kB time=00:00:04.33 bitrate=   1.4kbits/s speed=0.07x    frame=  179 fps=2.9 q=39.0 size=       1kB time=00:00:04.41 bitrate=   1.3kbits/s speed=0.0707x    frame=  181 fps=2.9 q=37.0 size=       1kB time=00:00:04.50 bitrate=   1.3kbits/s speed=0.071x    frame=  182 fps=2.8 q=39.0 size=       1kB time=00:00:04.54 bitrate=   1.3kbits/s speed=0.071x    frame=  184 fps=2.8 q=39.0 size=       1kB time=00:00:04.62 bitrate=   1.3kbits/s speed=0.0715x    frame=  189 fps=2.9 q=39.0 size=    4851kB time=00:00:04.83 bitrate=8221.0kbits/s speed=0.0742x    frame=  191 fps=2.9 q=39.0 size=    4851kB time=00:00:04.91 bitrate=8080.5kbits/s speed=0.0743x    frame=  193 fps=2.9 q=39.0 size=    4851kB time=00:00:05.00 bitrate=7946.4kbits/s speed=0.0747x    frame=  195 fps=2.9 q=39.0 size=    4851kB time=00:00:05.08 bitrate=7816.7kbits/s speed=0.0754x    frame=  197 fps=2.9 q=39.0 size=    4851kB time=00:00:05.16 bitrate=7689.6kbits/s speed=0.0756x    frame=  198 fps=2.9 q=39.0 size=    4851kB time=00:00:05.20 bitrate=7629.1kbits/s speed=0.0756x    frame=  199 fps=2.9 q=39.0 size=    4851kB time=00:00:05.25 bitrate=7568.1kbits/s speed=0.0755x    frame=  201 fps=2.9 q=39.0 size=    4851kB time=00:00:05.33 bitrate=7450.3kbits/s speed=0.0758x    frame=  203 fps=2.9 q=39.0 size=    4851kB time=00:00:05.41 bitrate=7334.8kbits/s speed=0.0761x    frame=  205 fps=2.8 q=39.0 size=    4851kB time=00:00:05.50 bitrate=7224.2kbits/s speed=0.0762x    frame=  207 fps=2.8 q=39.0 size=    4851kB time=00:00:05.58 bitrate=7116.8kbits/s speed=0.0767x    frame=  209 fps=2.8 q=39.0 size=    4851kB time=00:00:05.66 bitrate=7011.3kbits/s speed=0.0772x    frame=  211 fps=2.8 q=38.0 size=    4851kB time=00:00:05.75 bitrate=6910.1kbits/s speed=0.0777x    frame=  212 fps=2.8 q=38.0 size=    4851kB time=00:00:05.79 bitrate=6860.0kbits/s speed=0.0776x    frame=  214 fps=2.8 q=38.0 size=    4851kB time=00:00:05.87 bitrate=6763.1kbits/s speed=0.0778x    frame=  216 fps=2.8 q=38.0 size=    4851kB time=00:00:05.95 bitrate=6668.9kbits/s speed=0.0782x    frame=  219 fps=2.8 q=38.0 size=    4851kB time=00:00:06.08 bitrate=6531.9kbits/s speed=0.0792x    frame=  220 fps=2.8 q=38.0 size=    4851kB time=00:00:06.12 bitrate=6487.1kbits/s speed=0.0791x    frame=  222 fps=2.8 q=38.0 size=    4851kB time=00:00:06.20 bitrate=6400.4kbits/s speed=0.079x    frame=  225 fps=2.8 q=38.0 size=    4851kB time=00:00:06.33 bitrate=6274.1kbits/s speed=0.08x    frame=  228 fps=2.8 q=38.0 size=    4851kB time=00:00:06.45 bitrate=6152.7kbits/s speed=0.0795x    frame=  231 fps=2.8 q=38.0 size=    4851kB time=00:00:06.58 bitrate=6035.9kbits/s speed=0.0803x    frame=  232 fps=2.8 q=38.0 size=    4851kB time=00:00:06.62 bitrate=5997.6kbits/s speed=0.0802x    frame=  234 fps=2.8 q=38.0 size=    4851kB time=00:00:06.70 bitrate=5923.4kbits/s speed=0.0805x    frame=  235 fps=2.8 q=38.0 size=    4851kB time=00:00:06.75 bitrate=5886.5kbits/s speed=0.0801x    frame=  237 fps=2.8 q=38.0 size=    4851kB time=00:00:06.83 bitrate=5815.1kbits/s speed=0.0806x    frame=  240 fps=2.8 q=38.0 size=    4851kB time=00:00:06.95 bitrate=5710.6kbits/s speed=0.0813x    frame=  241 fps=2.8 q=38.0 size=    4851kB time=00:00:07.00 bitrate=5676.3kbits/s speed=0.0809x    frame=  243 fps=2.8 q=38.0 size=    4851kB time=00:00:07.08 bitrate=5609.8kbits/s speed=0.081x    frame=  246 fps=2.8 q=38.0 size=    4851kB time=00:00:07.20 bitrate=5512.6kbits/s speed=0.0816x    frame=  247 fps=2.8 q=38.0 size=    4851kB time=00:00:07.25 bitrate=5480.6kbits/s speed=0.0814x    frame=  249 fps=2.8 q=35.0 size=    4851kB time=00:00:07.33 bitrate=5418.6kbits/s speed=0.0817x    frame=  251 fps=2.8 q=38.0 size=    4851kB time=00:00:07.41 bitrate=5357.2kbits/s speed=0.082x    frame=  253 fps=2.8 q=38.0 size=    4851kB time=00:00:07.50 bitrate=5298.0kbits/s speed=0.0824x    frame=  258 fps=2.8 q=38.0 size=    7230kB time=00:00:07.70 bitrate=7683.1kbits/s speed=0.0842x    frame=  261 fps=2.8 q=37.0 size=    7230kB time=00:00:07.83 bitrate=7560.5kbits/s speed=0.085x    frame=  262 fps=2.8 q=37.0 size=    7230kB time=00:00:07.87 bitrate=7520.2kbits/s speed=0.0846x    frame=  266 fps=2.8 q=37.0 size=    7230kB time=00:00:08.04 bitrate=7364.1kbits/s speed=0.0857x    frame=  268 fps=2.8 q=37.0 size=    7230kB time=00:00:08.12 bitrate=7288.9kbits/s speed=0.0855x    frame=  269 fps=2.8 q=37.0 size=    7230kB time=00:00:08.16 bitrate=7251.4kbits/s speed=0.0854x    frame=  271 fps=2.8 q=37.0 size=    7230kB time=00:00:08.25 bitrate=7178.4kbits/s speed=0.0855x    frame=  273 fps=2.8 q=37.0 size=    7230kB time=00:00:08.33 bitrate=7106.9kbits/s speed=0.0854x    frame=  275 fps=2.8 q=37.0 size=    7230kB time=00:00:08.41 bitrate=7036.0kbits/s speed=0.0858x    frame=  279 fps=2.8 q=37.0 size=    7230kB time=00:00:08.58 bitrate=6900.0kbits/s speed=0.0859x    frame=  283 fps=2.8 q=37.0 size=    7230kB time=00:00:08.75 bitrate=6768.3kbits/s speed=0.087x    frame=  284 fps=2.8 q=37.0 size=    7230kB time=00:00:08.79 bitrate=6736.0kbits/s speed=0.087x    frame=  287 fps=2.8 q=37.0 size=    7230kB time=00:00:08.91 bitrate=6641.5kbits/s speed=0.087x    frame=  290 fps=2.8 q=37.0 size=    7230kB time=00:00:09.04 bitrate=6549.7kbits/s speed=0.0876x    frame=  292 fps=2.8 q=37.0 size=    7230kB time=00:00:09.12 bitrate=6490.2kbits/s speed=0.088x    frame=  293 fps=2.8 q=37.0 size=    7230kB time=00:00:09.16 bitrate=6460.4kbits/s speed=0.0877x    frame=  295 fps=2.8 q=37.0 size=    7230kB time=00:00:09.25 bitrate=6402.5kbits/s speed=0.0879x    frame=  298 fps=2.8 q=37.0 size=    7230kB time=00:00:09.37 bitrate=6317.1kbits/s speed=0.0886x    frame=  301 fps=2.8 q=36.0 size=    7230kB time=00:00:09.50 bitrate=6234.0kbits/s speed=0.0884x    frame=  307 fps=2.8 q=36.0 size=    7230kB time=00:00:09.75 bitrate=6074.2kbits/s speed=0.0891x    frame=  311 fps=2.8 q=36.0 size=    7230kB time=00:00:09.91 bitrate=5971.9kbits/s speed=0.0899x    frame=  313 fps=2.8 q=36.0 size=    7230kB time=00:00:10.00 bitrate=5922.3kbits/s speed=0.0899x    frame=  318 fps=2.8 q=36.0 size=    7230kB time=00:00:10.20 bitrate=5801.7kbits/s speed=0.0913x    frame=  319 fps=2.8 q=36.0 size=    7230kB time=00:00:10.25 bitrate=5777.9kbits/s speed=0.0911x    frame=  320 fps=2.8 q=36.0 size=    7230kB time=00:00:10.29 bitrate=5754.3kbits/s speed=0.0906x    frame=  324 fps=2.8 q=36.0 size=    7230kB time=00:00:10.45 bitrate=5663.0kbits/s speed=0.0916x    frame=  326 fps=2.8 q=36.0 size=    7230kB time=00:00:10.54 bitrate=5617.9kbits/s speed=0.0917x    frame=  328 fps=2.8 q=36.0 size=    7230kB time=00:00:10.62 bitrate=5574.0kbits/s speed=0.092x    frame=  332 fps=2.9 q=36.0 size=    7230kB time=00:00:10.79 bitrate=5487.7kbits/s speed=0.0929x    frame=  334 fps=2.9 q=36.0 size=    7230kB time=00:00:10.87 bitrate=5445.9kbits/s speed=0.093x    frame=  340 fps=2.9 q=35.0 size=    9692kB time=00:00:11.12 bitrate=7136.3kbits/s speed=0.0947x    frame=  343 fps=2.9 q=35.0 size=    9692kB time=00:00:11.25 bitrate=7057.0kbits/s speed=0.0951x    frame=  346 fps=2.9 q=35.0 size=    9692kB time=00:00:11.37 bitrate=6979.5kbits/s speed=0.0957x    frame=  348 fps=2.9 q=35.0 size=    9692kB time=00:00:11.45 bitrate=6928.9kbits/s speed=0.0957x    frame=  349 fps=2.9 q=35.0 size=    9692kB time=00:00:11.50 bitrate=6903.6kbits/s speed=0.0956x    frame=  355 fps=2.9 q=35.0 size=    9692kB time=00:00:11.75 bitrate=6756.7kbits/s speed=0.0962x    frame=  359 fps=2.9 q=35.0 size=    9692kB time=00:00:11.91 bitrate=6662.1kbits/s speed=0.0971x    frame=  361 fps=2.9 q=35.0 size=    9692kB time=00:00:12.00 bitrate=6616.0kbits/s speed=0.0974x    frame=  363 fps=2.9 q=35.0 size=    9692kB time=00:00:12.08 bitrate=6570.5kbits/s speed=0.0974x    frame=  367 fps=2.9 q=35.0 size=    9692kB time=00:00:12.25 bitrate=6481.0kbits/s speed=0.0983x    frame=  369 fps=2.9 q=35.0 size=    9692kB time=00:00:12.33 bitrate=6437.4kbits/s speed=0.0984x    frame=  371 fps=2.9 q=35.0 size=    9692kB time=00:00:12.41 bitrate=6393.8kbits/s speed=0.0986x    frame=  375 fps=3.0 q=34.0 size=    9692kB time=00:00:12.58 bitrate=6309.5kbits/s speed=0.0994x    frame=  378 fps=3.0 q=34.0 size=    9692kB time=00:00:12.70 bitrate=6247.4kbits/s speed=0.0998x    frame=  382 fps=3.0 q=34.0 size=    9692kB time=00:00:12.87 bitrate=6166.4kbits/s speed=0.101x    frame=  385 fps=3.0 q=34.0 size=    9692kB time=00:00:13.00 bitrate=6107.1kbits/s speed=0.101x    frame=  387 fps=3.0 q=34.0 size=    9692kB time=00:00:13.08 bitrate=6068.4kbits/s speed=0.101x    frame=  392 fps=3.0 q=34.0 size=    9692kB time=00:00:13.29 bitrate=5972.9kbits/s speed=0.102x    frame=  396 fps=3.0 q=33.0 size=    9692kB time=00:00:13.45 bitrate=5899.3kbits/s speed=0.103x    frame=  400 fps=3.0 q=33.0 size=    9692kB time=00:00:13.62 bitrate=5827.0kbits/s speed=0.103x    frame=  403 fps=3.0 q=33.0 size=    9692kB time=00:00:13.75 bitrate=5774.0kbits/s speed=0.103x    frame=  407 fps=3.0 q=33.0 size=    9692kB time=00:00:13.91 bitrate=5704.7kbits/s speed=0.104x    frame=  410 fps=3.0 q=33.0 size=    9692kB time=00:00:14.04 bitrate=5654.0kbits/s speed=0.104x    frame=  414 fps=3.1 q=33.0 size=    9692kB time=00:00:14.20 bitrate=5587.9kbits/s speed=0.105x    frame=  415 fps=3.1 q=33.0 size=    9692kB time=00:00:14.25 bitrate=5571.4kbits/s speed=0.105x    frame=  419 fps=3.1 q=33.0 size=    9692kB time=00:00:14.41 bitrate=5506.9kbits/s speed=0.106x    frame=  423 fps=3.1 q=32.0 size=    9692kB time=00:00:14.58 bitrate=5444.2kbits/s speed=0.106x    frame=  426 fps=3.1 q=32.0 size=    9692kB time=00:00:14.70 bitrate=5397.9kbits/s speed=0.107x    frame=  430 fps=3.1 q=32.0 size=    9692kB time=00:00:14.87 bitrate=5337.4kbits/s speed=0.107x    frame=  432 fps=3.1 q=32.0 size=    9692kB time=00:00:14.95 bitrate=5307.7kbits/s speed=0.107x    frame=  438 fps=3.1 q=32.0 size=   12064kB time=00:00:15.20 bitrate=6498.2kbits/s speed=0.109x    frame=  440 fps=3.1 q=32.0 size=   12064kB time=00:00:15.29 bitrate=6462.5kbits/s speed=0.109x    frame=  442 fps=3.1 q=32.0 size=   12064kB time=00:00:15.37 bitrate=6427.7kbits/s speed=0.109x    frame=  444 fps=3.1 q=32.0 size=   12064kB time=00:00:15.45 bitrate=6393.1kbits/s speed=0.109x    frame=  447 fps=3.1 q=32.0 size=   12064kB time=00:00:15.58 bitrate=6341.9kbits/s speed=0.109x    frame=  450 fps=3.1 q=32.0 size=   12064kB time=00:00:15.70 bitrate=6291.4kbits/s speed=0.109x    frame=  455 fps=3.1 q=32.0 size=   12064kB time=00:00:15.91 bitrate=6208.8kbits/s speed=0.11x    frame=  456 fps=3.1 q=31.0 size=   12064kB time=00:00:15.95 bitrate=6192.8kbits/s speed=0.11x    frame=  457 fps=3.1 q=31.0 size=   12064kB time=00:00:16.00 bitrate=6176.6kbits/s speed=0.11x    frame=  458 fps=3.1 q=31.0 size=   12064kB time=00:00:16.04 bitrate=6160.4kbits/s speed=0.109x    frame=  460 fps=3.1 q=31.0 size=   12064kB time=00:00:16.12 bitrate=6128.7kbits/s speed=0.109x    frame=  464 fps=3.1 q=31.0 size=   12064kB time=00:00:16.29 bitrate=6065.9kbits/s speed=0.109x    frame=  467 fps=3.1 q=31.0 size=   12064kB time=00:00:16.41 bitrate=6019.7kbits/s speed=0.11x    frame=  469 fps=3.1 q=32.0 size=   12064kB time=00:00:16.50 bitrate=5989.4kbits/s speed=0.11x    frame=  471 fps=3.1 q=32.0 size=   12064kB time=00:00:16.58 bitrate=5959.5kbits/s speed=0.109x    frame=  477 fps=3.1 q=32.0 size=   12064kB time=00:00:16.83 bitrate=5871.0kbits/s speed=0.109x    frame=  481 fps=3.1 q=32.0 size=   12064kB time=00:00:17.00 bitrate=5813.3kbits/s speed=0.11x    frame=  483 fps=3.1 q=32.0 size=   12064kB time=00:00:17.08 bitrate=5785.0kbits/s speed=0.11x    frame=  485 fps=3.1 q=32.0 size=   12064kB time=00:00:17.16 bitrate=5756.7kbits/s speed=0.11x    frame=  489 fps=3.1 q=32.0 size=   14252kB time=00:00:17.33 bitrate=6735.5kbits/s speed=0.111x    frame=  494 fps=3.1 q=32.0 size=   14252kB time=00:00:17.54 bitrate=6655.2kbits/s speed=0.111x    frame=  498 fps=3.1 q=32.0 size=   14252kB time=00:00:17.70 bitrate=6592.9kbits/s speed=0.112x    frame=  500 fps=3.1 q=32.0 size=   14252kB time=00:00:17.79 bitrate=6561.7kbits/s speed=0.112x    frame=  500 fps=2.8 q=-1.0 Lsize=   17380kB time=00:00:20.70 bitrate=6875.3kbits/s speed=0.117x    
video:17376kB audio:0kB subtitle:0kB other streams:0kB global headers:0kB muxing overhead: 0.027421%
bench: utime=657.768s
bench: maxrss=2153344kB
[libx264 @ 0x37091c0] frame I:6     Avg QP:25.84  size:155214
[libx264 @ 0x37091c0] frame P:273   Avg QP:32.29  size: 44345
[libx264 @ 0x37091c0] frame B:221   Avg QP:31.63  size: 21513
[libx264 @ 0x37091c0] consecutive B-frames: 35.2% 11.6% 18.0% 35.2%
[libx264 @ 0x37091c0] mb I  I16..4: 25.9% 70.5%  3.6%
[libx264 @ 0x37091c0] mb P  I16..4: 17.0% 25.9%  0.2%  P16..4: 22.5%  1.4%  1.1%  0.0%  0.0%    skip:31.8%
[libx264 @ 0x37091c0] mb B  I16..4:  1.1%  1.7%  0.1%  B16..8: 31.1%  2.0%  0.3%  direct: 0.8%  skip:63.0%  L0:41.3% L1:56.7% BI: 1.9%
[libx264 @ 0x37091c0] final ratefactor: 29.20
[libx264 @ 0x37091c0] 8x8 transform intra:60.6% inter:87.4%
[libx264 @ 0x37091c0] direct mvs  spatial:99.1% temporal:0.9%
[libx264 @ 0x37091c0] coded y,uvDC,uvAC intra: 13.4% 21.5% 1.0% inter: 4.1% 4.1% 0.0%
[libx264 @ 0x37091c0] i16 v,h,dc,p: 23% 27%  8% 42%
[libx264 @ 0x37091c0] i8 v,h,dc,ddl,ddr,vr,hd,vl,hu: 22% 13% 40%  4%  4%  4%  5%  3%  4%
[libx264 @ 0x37091c0] i4 v,h,dc,ddl,ddr,vr,hd,vl,hu: 14% 16%  8%  7% 13% 11% 14%  6% 12%
[libx264 @ 0x37091c0] i8c dc,h,v,p: 80% 12%  6%  2%
[libx264 @ 0x37091c0] Weighted P-Frames: Y:1.1% UV:0.7%
[libx264 @ 0x37091c0] ref P L0: 64.4% 15.5%  9.9%  3.2%  2.1%  1.7%  1.7%  1.2%  0.3%  0.0%
[libx264 @ 0x37091c0] ref B L0: 88.7%  6.3%  2.6%  1.0%  0.7%  0.5%  0.2%
[libx264 @ 0x37091c0] ref B L1: 98.4%  1.6%
[libx264 @ 0x37091c0] kb/s:6832.10
